# xmcd
#
# Track frame offsets: 
#        150
#        11847
#        26748
#        37886
#        54103
#        64371
#        79709
#        85924
#        99790
#        117120
#        135992
#        150732
#
# Disc length: 2238 seconds
#
# Revision: 0
# Processed by: cddbd v1.5.1PL2 Copyright (c) Steve Scherf et al.
# Submitted via: ExactAudioCopy v0.95b3
#
DISCID=8608bc0c
DTITLE=Tuesdays (45 Strings) - 45 Strings
DYEAR=2003
DGENRE=Alt Country
TTITLE0=Milwaukee
TTITLE1=The Duelists
TTITLE2=Jubilee
TTITLE3=Behind The Shed
TTITLE4=Too Young To Know Your Heart
TTITLE5=Never Burn Again
TTITLE6=Gone
TTITLE7=Stars In The Sky
TTITLE8=Hard To Say I love You
TTITLE9=Rain Down
TTITLE10=Southern Mountain Blues
TTITLE11=Til The Moon Falls Down
EXTD=
EXTT0=
EXTT1=
EXTT2=
EXTT3=
EXTT4=
EXTT5=
EXTT6=
EXTT7=
EXTT8=
EXTT9=
EXTT10=
EXTT11=
PLAYORDER=
